<?xml version="1.0" encoding="UTF-8"?>
<svg id="Layer_1" data-name="Layer 1" xmlns="http://www.w3.org/2000/svg" xmlns:xlink="http://www.w3.org/1999/xlink" viewBox="0 0 200 200">
  <defs>
    <style>
      .cls-1 {
        clip-path: url(#clippath);
      }

      .cls-2 {
        fill: none;
      }

      .cls-2, .cls-3 {
        stroke-width: 0px;
      }

      .cls-3 {
        fill: #000;
      }
    </style>
    <clipPath id="clippath">
      <circle class="cls-2" cx="-141.35" cy="29.21" r="85.72"/>
    </clipPath>
  </defs>
  <g class="cls-1">
    <image width="2247" height="1500" transform="translate(-493.79 -197.49) scale(.31)" xlink:href="cover.webp"/>
  </g>
  <g>
    <path class="cls-3" d="M14.41,99.85c.13-47.27,38.61-85.57,85.85-85.46,47.36.11,85.49,38.68,85.33,86.31-.16,47-38.79,85.06-86.18,84.91-46.82-.15-85.13-38.8-85-85.76ZM99.97,137.89c15.63,0,31.26,0,46.9,0,4.01,0,5.51-1.5,5.51-5.46,0-21.64,0-43.28,0-64.93,0-3.85-1.54-5.39-5.4-5.39-31.21,0-62.41,0-93.62,0-4.28,0-5.67,1.39-5.67,5.64,0,21.46,0,42.93,0,64.39,0,4.37,1.35,5.74,5.75,5.74,15.51,0,31.03,0,46.54,0Z"/>
    <path class="cls-3" d="M100.01,104.34c-12.13-10.6-24.13-21.09-36.45-31.86h72.89c-12.29,10.74-24.28,21.22-36.44,31.86Z"/>
    <path class="cls-3" d="M64.46,129.12c8.61-7.67,16.84-15.01,25.17-22.45,2.31,2.01,4.54,3.96,6.77,5.9,2.7,2.36,4.49,2.36,7.19,0,2.28-1.98,4.55-3.97,6.93-6.05,8.39,7.48,16.69,14.89,25.32,22.58h-71.38Z"/>
    <path class="cls-3" d="M56.38,77.59c9.03,7.89,17.81,15.56,26.76,23.38-8.93,7.96-17.72,15.8-26.76,23.86v-47.25Z"/>
    <path class="cls-3" d="M117,100.85c8.86-7.74,17.62-15.39,26.63-23.26v47c-8.96-7.98-17.74-15.81-26.63-23.74Z"/>
  </g>
</svg>